<svg xmlns="http://www.w3.org/2000/svg" xmlns:xlink="http://www.w3.org/1999/xlink" viewBox="0 0 512 325"><defs><symbol id="i" viewBox="10 10 215 196"><circle cx="98" cy="98" r="40" stroke="#f8af18" stroke-miterlimit="10" stroke-width="4" fill="url(#a)"/><path d="M98 31.38V6m0 184v-25.38m47.11-113.73L163.05 33M33 163.05l17.94-17.94m0-94.22L33 33m130.1 130.1-17.94-17.94M6 98h25.38M190 98h-25.38" fill="none" stroke="#fbbf24" stroke-linecap="round" stroke-miterlimit="10" stroke-width="12"/></symbol><symbol id="f" viewBox="0 0 200.26 126.12"><path d="M.5 93.18a32.44 32.44 0 0 0 32.44 32.44h129.75v-.12c.77 0 1.53.12 2.31.12a34.75 34.75 0 0 0 6.49-68.89A32.38 32.38 0 0 0 123 23.62a48.58 48.58 0 0 0-88.6 37.19c-.49 0-1-.07-1.46-.07A32.44 32.44 0 0 0 .5 93.18Z" stroke="#848b98" stroke-miterlimit="10" fill="url(#b)"/></symbol><symbol id="g" viewBox="0 0 350 222"><path d="M291 107c-.85 0-1.68.09-2.53.13A83.9 83.9 0 0 0 135.6 42.92 55.91 55.91 0 0 0 51 91a56.6 56.6 0 0 0 .8 9.08A60 60 0 0 0 63 219c1.35 0 2.67-.11 4-.2v.2h224a56 56 0 0 0 0-112Z" stroke="#e6effc" stroke-miterlimit="10" stroke-width="6" fill="url(#d)"/></symbol><symbol id="j" viewBox="0 0 398 222"><use width="200.26" height="126.12" transform="translate(198 27)" xlink:href="#f"/><use width="350" height="222" xlink:href="#g"/></symbol><symbol id="k" viewBox="0 0 410.84 258"><use width="196" height="196" xlink:href="#i"/><use width="398" height="222" transform="translate(12.84 36)" xlink:href="#j"/></symbol><linearGradient id="d" x1="99.45" y1="30.68" x2="232.64" y2="261.37" gradientUnits="userSpaceOnUse"><stop offset="0" stop-color="#f3f7fe"/><stop offset=".45" stop-color="#f3f7fe"/><stop offset="1" stop-color="#deeafb"/></linearGradient><linearGradient id="b" x1="52.74" y1="9.62" x2="133.36" y2="149.27" gradientUnits="userSpaceOnUse"><stop offset="0" stop-color="#9ca3af"/><stop offset=".45" stop-color="#9ca3af"/><stop offset="1" stop-color="#6b7280"/></linearGradient><linearGradient id="a" x1="78" y1="63.35" x2="118" y2="132.65" gradientUnits="userSpaceOnUse"><stop offset="0" stop-color="#fbbf24"/><stop offset=".45" stop-color="#fbbf24"/><stop offset="1" stop-color="#f59e0b"/></linearGradient></defs><use width="512" height="512" transform="translate(0 -94)" xlink:href="#k"/></svg>